<?xml version="1.0" encoding="UTF-8"?>
<svg id="Layer_1" data-name="Layer 1" xmlns="http://www.w3.org/2000/svg" viewBox="0 0 18.96 15.06">
  <defs>
    <style>
      .cls-1 {
        fill: #1977cc;
      }
    </style>
  </defs>
  <path class="cls-1" d="m2.25,3.07c.02-.23-.07-.46-.24-.62L.24.32v-.32h5.5l4.25,9.32L13.72,0h5.24v.32l-1.51,1.45c-.13.1-.19.26-.17.43v10.67c-.03.16.04.32.17.42l1.48,1.45v.32h-7.44v-.32l1.53-1.49c.15-.15.15-.19.15-.42V4.2l-4.26,10.82h-.57L3.38,4.2v7.25c-.04.31.06.61.28.83l1.99,2.42v.32H0v-.32l1.99-2.42c.21-.22.31-.53.26-.83V3.07Z"/>
</svg>